<svg
    xmlns="http://www.w3.org/2000/svg"
    viewBox="0 0 39.39 40.19"
>
    <g>
        <path
            d="M42.29,23.46a23.72,23.72,0,0,0-.36-4.11H23v7.77H33.81a9.2,9.2,0,0,1-4,6.06v5h6.5c3.8-3.5,6-8.65,6-14.77Z"
            transform="translate(-2.9 -2.9)"
            fill="#4285f4"
            fillRule="evenodd"
        />
        <path
            d="M23,43.1a19.18,19.18,0,0,0,13.3-4.87l-6.5-5a12.11,12.11,0,0,1-18-6.36H5V32A20.09,20.09,0,0,0,23,43.1Z"
            transform="translate(-2.9 -2.9)"
            fill="#34a853"
            fillRule="evenodd"
        />
        <path
            d="M11.76,26.82a11.9,11.9,0,0,1,0-7.64V14H5A20.08,20.08,0,0,0,5,32l6.72-5.2Z"
            transform="translate(-2.9 -2.9)"
            fill="#fbbc05"
            fillRule="evenodd"
        />
        <path
            d="M23,10.9a10.85,10.85,0,0,1,7.68,3l5.77-5.76A19.33,19.33,0,0,0,23,2.9,20.09,20.09,0,0,0,5,14l6.72,5.2A12,12,0,0,1,23,10.9Z"
            transform="translate(-2.9 -2.9)"
            fill="#ea4335"
            fillRule="evenodd"
        />
    </g>
</svg>